<svg version="1" xmlns="http://www.w3.org/2000/svg" width="320" height="320" viewBox="0 0 240.000000 240.000000"><path d="M106.5.6C89.7 3.2 78.3 6.8 64.7 13.8 33 30 10.1 60.2 2.4 96c-2.6 11.8-2.6 36.2 0 48 10.2 47.4 46.2 83.4 93.6 93.6 11.8 2.6 36.2 2.6 48 0 47.4-10.2 83.4-46.2 93.6-93.6 2.6-11.8 2.6-36.2 0-48-10.1-46.7-45.4-82.6-91.6-93.1C137.7 1 113.3-.4 106.5.6zm69 69.9v6l-58.7.3L58 77v80H46V64l64.8.2 64.7.3v6zm18.5 62V176H71V89h123v43.5z"/><path d="M83 132.5V163h99v-61H83v30.5zm29-16.5c1.1 1.1 2 2.9 2 4 0 2.7-3.5 6-6.4 6-3.3 0-5.6-2.5-5.6-6 0-5.6 6-8 10-4zm39.9 20l11.1 14.5-15 .3c-8.2.1-21.9.1-30.5 0l-15.7-.3L111 139c5-6.3 9.4-11.7 9.7-12 .3-.3 2.4 1.6 4.6 4.2l4.2 4.8 5-8c2.7-4.4 5.3-7.6 5.7-7.2.4.4 5.7 7.3 11.7 15.2z"/></svg>