<svg version="1" xmlns="http://www.w3.org/2000/svg" width="320" height="320" viewBox="0 0 240.000000 240.000000"><path d="M30.4 1.7c.3 1 1.3 5.5 2.2 10l1.7 8.3h171.4l1.7-8.3c.9-4.5 1.9-9 2.2-10C210.1.1 205.4 0 120 0 34.6 0 29.9.1 30.4 1.7zM14.4 42.2c.3 1.3 1.3 5.8 2.3 10.1l1.6 7.7 101.6-.2 101.5-.3 2.3-9c1.2-5 2.3-9.3 2.3-9.8 0-.4-47.8-.7-106.1-.7H13.8l.6 2.2zM.4 83.2C.7 85 3 101.8 5.5 120.5c2.5 18.7 4.8 35.2 5.1 36.7l.6 2.8h9.9c5.4 0 9.9-.1 9.9-.3 0-.1-1.8-13.4-4-29.6-2.2-16.2-4-29.6-4-29.8 0-.2 43.7-.3 97-.3 53.4 0 97 .1 97 .2 0 .2-1.8 13-4 28.6-2.2 15.6-4 29-4 29.8 0 1.1 2 1.4 10 1.4 5.5 0 10-.3 10-.8 0-.4 2.5-18.3 5.5-39.7 3-21.5 5.5-39.1 5.5-39.3 0-.1-54.1-.2-120.1-.2H-.2l.6 3.2z"/><path d="M64.4 111c-5.9 2.3-7.2 10.4-2.5 15 7.1 7.2 19.1 3.8 19.1-5.4 0-7.5-9-12.7-16.6-9.6zM125.6 131.1c-5.6 8.3-9.3 12.8-10.1 12.5-.8-.3-4.7-3-8.9-6-4.1-3.1-7.9-5.6-8.3-5.6-.5 0-7.1 6.3-14.8 14l-14 14h100.6l-17.7-21c-9.7-11.6-17.7-21-17.8-21-.1 0-4.2 5.9-9 13.1zM.4 181.7c.3 1 4.8 14.4 9.9 29.8l9.4 28h200.6l9.4-28c5.1-15.4 9.6-28.8 9.9-29.8.5-1.6-5.6-1.7-119.6-1.7S-.1 180.1.4 181.7z"/></svg>